HIERARCHY
ROOT Hips
{
    OFFSET   0.000000   0.000000   0.000000
    CHANNELS 6 Xposition Yposition Zposition Zrotation Xrotation Yrotation
    JOINT Chest
    {
        OFFSET   0.000000   8.007230   0.000000
        CHANNELS 3 Zrotation Xrotation Yrotation
        JOINT Chest2
        {
            OFFSET   0.000000  22.077100   0.000000
            CHANNELS 3 Zrotation Xrotation Yrotation
            JOINT Neck
            {
                OFFSET   0.000000  23.255100   0.000000
                CHANNELS 3 Zrotation Xrotation Yrotation
                JOINT Head
                {
                    OFFSET   0.000000  14.370100   1.956600
                    CHANNELS 3 Zrotation Xrotation Yrotation
                    End Site
                    {
                        OFFSET   0.000000  19.566000   0.000000
                    }
                }
            }
            JOINT LeftCollar
            {
                OFFSET   3.911900  19.017000  -0.467063
                CHANNELS 3 Zrotation Xrotation Yrotation
                JOINT LeftShoulder
                {
                    OFFSET  10.383700   0.000000   0.000000
                    CHANNELS 3 Zrotation Xrotation Yrotation
                    JOINT LeftElbow
                    {
                        OFFSET  26.662100   0.001193   0.000980
                        CHANNELS 3 Zrotation Xrotation Yrotation
                        JOINT LeftWrist
                        {
                            OFFSET  28.869000  -0.000059  -0.000082
                            CHANNELS 3 Zrotation Xrotation Yrotation
                            JOINT LeftFinger0
                            {
                                OFFSET   2.044650  -2.323450   3.252850
                                CHANNELS 3 Zrotation Xrotation Yrotation
                                JOINT LeftFinger01
                                {
                                    OFFSET   3.088130   0.000000   0.000000
                                    CHANNELS 3 Zrotation Xrotation Yrotation
                                    JOINT LeftFinger02
                                    {
                                        OFFSET   2.639460   0.000000   0.000000
                                        CHANNELS 3 Zrotation Xrotation Yrotation
                                        End Site
                                        {
                                            OFFSET   2.582190   0.000000   0.000000
                                        }
                                    }
                                }
                            }
                            JOINT LeftFinger1
                            {
                                OFFSET   8.364480   0.000000   3.252850
                                CHANNELS 3 Zrotation Xrotation Yrotation
                                JOINT LeftFinger11
                                {
                                    OFFSET   4.646930   0.000000   0.000000
                                    CHANNELS 3 Zrotation Xrotation Yrotation
                                    JOINT LeftFinger12
                                    {
                                        OFFSET   2.323470   0.000000   0.000000
                                        CHANNELS 3 Zrotation Xrotation Yrotation
                                        End Site
                                        {
                                            OFFSET   2.273050   0.000000   0.000000
                                        }
                                    }
                                }
                            }
                            JOINT LeftFinger2
                            {
                                OFFSET   8.364490   0.000016   1.078090
                                CHANNELS 3 Zrotation Xrotation Yrotation
                                JOINT LeftFinger21
                                {
                                    OFFSET   5.111610   0.000000   0.000000
                                    CHANNELS 3 Zrotation Xrotation Yrotation
                                    JOINT LeftFinger22
                                    {
                                        OFFSET   2.788150   0.000016   0.000000
                                        CHANNELS 3 Zrotation Xrotation Yrotation
                                        End Site
                                        {
                                            OFFSET   2.727660   0.000000   0.000000
                                        }
                                    }
                                }
                            }
                            JOINT LeftFinger3
                            {
                                OFFSET   7.899780   0.000015  -1.078090
                                CHANNELS 3 Zrotation Xrotation Yrotation
                                JOINT LeftFinger31
                                {
                                    OFFSET   4.646930   0.000000   0.000000
                                    CHANNELS 3 Zrotation Xrotation Yrotation
                                    JOINT LeftFinger32
                                    {
                                        OFFSET   2.323470   0.000000   0.000000
                                        CHANNELS 3 Zrotation Xrotation Yrotation
                                        End Site
                                        {
                                            OFFSET   2.273050   0.000000   0.000000
                                        }
                                    }
                                }
                            }
                            JOINT LeftFinger4
                            {
                                OFFSET   7.435090   0.000000  -3.252850
                                CHANNELS 3 Zrotation Xrotation Yrotation
                                JOINT LeftFinger41
                                {
                                    OFFSET   3.717550   0.000000   0.000000
                                    CHANNELS 3 Zrotation Xrotation Yrotation
                                    JOINT LeftFinger42
                                    {
                                        OFFSET   1.858770   0.000000   0.000000
                                        CHANNELS 3 Zrotation Xrotation Yrotation
                                        End Site
                                        {
                                            OFFSET   1.818440   0.000000   0.000000
                                        }
                                    }
                                }
                            }
                        }
                    }
                }
            }
            JOINT RightCollar
            {
                OFFSET  -3.911910  19.017000  -0.467062
                CHANNELS 3 Zrotation Xrotation Yrotation
                JOINT RightShoulder
                {
                    OFFSET -10.383700   0.000014   0.000000
                    CHANNELS 3 Zrotation Xrotation Yrotation
                    JOINT RightElbow
                    {
                        OFFSET -26.662100   0.001225   0.001091
                        CHANNELS 3 Zrotation Xrotation Yrotation
                        JOINT RightWrist
                        {
                            OFFSET -28.869000  -0.000020  -0.000085
                            CHANNELS 3 Zrotation Xrotation Yrotation
                            JOINT RightFinger0
                            {
                                OFFSET  -2.044650  -2.323490   3.252850
                                CHANNELS 3 Zrotation Xrotation Yrotation
                                JOINT RightFinger01
                                {
                                    OFFSET  -3.088130   0.000000   0.000000
                                    CHANNELS 3 Zrotation Xrotation Yrotation
                                    JOINT RightFinger02
                                    {
                                        OFFSET  -2.639460   0.000000   0.000000
                                        CHANNELS 3 Zrotation Xrotation Yrotation
                                        End Site
                                        {
                                            OFFSET  -2.582190   0.000000   0.000000
                                        }
                                    }
                                }
                            }
                            JOINT RightFinger1
                            {
                                OFFSET  -8.364480   0.000000   3.252850
                                CHANNELS 3 Zrotation Xrotation Yrotation
                                JOINT RightFinger11
                                {
                                    OFFSET  -4.646930   0.000000   0.000000
                                    CHANNELS 3 Zrotation Xrotation Yrotation
                                    JOINT RightFinger12
                                    {
                                        OFFSET  -2.323470   0.000000   0.000000
                                        CHANNELS 3 Zrotation Xrotation Yrotation
                                        End Site
                                        {
                                            OFFSET  -2.273050   0.000000   0.000000
                                        }
                                    }
                                }
                            }
                            JOINT RightFinger2
                            {
                                OFFSET  -8.364480   0.000000   1.078090
                                CHANNELS 3 Zrotation Xrotation Yrotation
                                JOINT RightFinger21
                                {
                                    OFFSET  -5.111620   0.000000   0.000000
                                    CHANNELS 3 Zrotation Xrotation Yrotation
                                    JOINT RightFinger22
                                    {
                                        OFFSET  -2.788160   0.000000   0.000000
                                        CHANNELS 3 Zrotation Xrotation Yrotation
                                        End Site
                                        {
                                            OFFSET  -2.727660   0.000000   0.000000
                                        }
                                    }
                                }
                            }
                            JOINT RightFinger3
                            {
                                OFFSET  -7.899780   0.000000  -1.078090
                                CHANNELS 3 Zrotation Xrotation Yrotation
                                JOINT RightFinger31
                                {
                                    OFFSET  -4.646930   0.000000   0.000000
                                    CHANNELS 3 Zrotation Xrotation Yrotation
                                    JOINT RightFinger32
                                    {
                                        OFFSET  -2.323470   0.000000   0.000000
                                        CHANNELS 3 Zrotation Xrotation Yrotation
                                        End Site
                                        {
                                            OFFSET  -2.273050   0.000000   0.000000
                                        }
                                    }
                                }
                            }
                            JOINT RightFinger4
                            {
                                OFFSET  -7.435090   0.000000  -3.252850
                                CHANNELS 3 Zrotation Xrotation Yrotation
                                JOINT RightFinger41
                                {
                                    OFFSET  -3.717550   0.000000   0.000000
                                    CHANNELS 3 Zrotation Xrotation Yrotation
                                    JOINT RightFinger42
                                    {
                                        OFFSET  -1.858760   0.000000   0.000000
                                        CHANNELS 3 Zrotation Xrotation Yrotation
                                        End Site
                                        {
                                            OFFSET  -1.818440   0.000000   0.000000
                                        }
                                    }
                                }
                            }
                        }
                    }
                }
            }
        }
    }
    JOINT LeftHip
    {
        OFFSET   9.783030   0.000000   0.000000
        CHANNELS 3 Zrotation Xrotation Yrotation
        JOINT LeftKnee
        {
            OFFSET   0.000063 -41.789100   0.000608
            CHANNELS 3 Zrotation Xrotation Yrotation
            JOINT LeftAnkle
            {
                OFFSET   0.000048 -41.133200  -0.000184
                CHANNELS 3 Zrotation Xrotation Yrotation
                JOINT LeftToe
                {
                    OFFSET   0.000000  -6.358960  14.674500
                    CHANNELS 3 Zrotation Xrotation Yrotation
                    End Site
                    {
                        OFFSET   0.000000   0.000000   3.913200
                    }
                }
            }
        }
    }
    JOINT RightHip
    {
        OFFSET  -9.783030   0.000000   0.000000
        CHANNELS 3 Zrotation Xrotation Yrotation
        JOINT RightKnee
        {
            OFFSET   0.000071 -41.789100   0.001239
            CHANNELS 3 Zrotation Xrotation Yrotation
            JOINT RightAnkle
            {
                OFFSET   0.000037 -41.133200  -0.000166
                CHANNELS 3 Zrotation Xrotation Yrotation
                JOINT RightToe
                {
                    OFFSET   0.000000  -6.358960  14.674500
                    CHANNELS 3 Zrotation Xrotation Yrotation
                    End Site
                    {
                        OFFSET   0.000000   0.000000   3.913200
                    }
                }
            }
        }
    }
}
MOTION
Frames: 4
Frame Time:   0.016667
  1.556550  89.487700   1.396380  -0.703320  -3.024200  -1.786470   0.644174   4.184700  -1.027000   1.369170   8.356850  -2.109720  -3.103720  -0.178376  -0.009659  -5.102550  -0.358285  11.565100  -8.590490  -2.348750   9.235390 -74.893700   9.149840   0.464164  -0.242769   6.012290 -19.060200   5.583750 -11.605200  -1.367140  47.118500  44.374000 -73.325400 -33.478400   0.006486   0.005440 -11.726500   0.006468   0.002684 -33.147200  -1.043340   1.597030 -27.132400   0.002092  -0.004005 -18.992700   0.002959  -0.000431 -30.930800  -3.717600   6.186340 -46.697100   0.000292  -0.001567 -31.100300   0.006525  -0.001199 -27.982500  -4.846910   9.030370 -34.800300  -0.006167   0.001184 -23.177000  -0.000420  -0.005631 -29.678600  -5.836230  10.086200 -45.293100  -0.000461  -0.006689 -30.165200  -0.001475  -0.005088   8.225120   1.926550  10.219300  70.662200   6.012730   2.235930   2.601900  -3.225910  19.941700 -14.939100  -6.261490   1.935630 -42.541800  37.100900  67.954500  30.221900   0.011364  -0.006587  10.110900   0.004334   0.004019  35.714800  -0.255264  -0.355047  29.222000   0.000670  -0.003191  20.455400  -0.000276  -0.002810  29.730700  -2.082920  -3.641510  44.695400  -0.000059   0.004252  29.767100   0.001304   0.003062  30.777400  -3.380180  -5.653040  46.416700  -0.001313  -0.002512  30.913500   0.010768   0.004211  40.035200  -4.245680  -5.036340  60.333400   0.001674   0.001987  40.182000   0.000783   0.001103   2.363990   5.276750   0.424472  -0.380584   0.094446  10.409400  -3.181350  -3.020810  -0.024122  -0.000000   0.000000   0.000000  -1.879220   6.673290  -5.180370   1.359340   0.315340 -16.056000   1.152650  -2.894470  -1.276050   0.000000   0.000000   0.000000
  1.556550  89.487700   1.409370  -0.702521  -3.040640  -1.761470   0.644040   4.184400  -1.025020   1.368650   8.356280  -2.105710  -3.111960  -0.154976  -0.009636  -5.114520  -0.311167  11.563300  -8.577620  -2.345370   9.245590 -74.882200   9.156300   0.410672  -0.222678   6.078140 -19.165000   5.602570 -11.619100  -1.392900  47.102200  44.363700 -73.298900 -33.478400   0.006484   0.005439 -11.726400   0.006477   0.002687 -33.167900  -1.050170   1.606190 -27.149400   0.002092  -0.004007 -19.004500   0.002959  -0.000429 -30.992100  -3.717800   6.169350 -46.788300   0.000293  -0.001565 -31.161000   0.006525  -0.001197 -27.988700  -4.846910   9.030370 -34.851200  -0.006166   0.001186 -23.210900  -0.000420  -0.005629 -29.710000  -5.836230  10.086200 -45.339100  -0.000461  -0.006687 -30.195800  -0.001475  -0.005086   8.200290   1.916810  10.209800  70.678900   5.995290   2.233060   2.605560  -3.181290  19.927400 -14.954100  -5.928960   1.932800 -42.508300  37.051800  67.951100  30.249500   0.011365  -0.006574  10.124700   0.004335   0.004014  35.740700  -0.208459  -0.289728  29.242900   0.000669  -0.003190  20.470000  -0.000274  -0.002810  29.741200  -2.068070  -3.614080  44.709700  -0.000029   0.004251  29.776600   0.001285   0.003073  30.769100  -3.411960  -5.707860  46.408800  -0.001313  -0.002512  30.908200   0.010765   0.004211  40.071200  -4.289680  -5.082140  60.389800   0.001671   0.001987  40.219600   0.000782   0.001103   2.357780   5.283090   0.424506  -0.375218   0.123801  10.392100  -3.182720  -3.042050  -0.035222   0.000000   0.000000  -0.000000  -1.877260   6.689530  -5.183920   1.358120   0.333751 -16.075700   1.154140  -2.913560  -1.281790  -0.000000   0.000000  -0.000000
  1.556540  89.487800   1.431140  -0.700932  -3.063050  -1.718250   0.643876   4.182340  -1.021760   1.368130   8.352180  -2.099140  -3.126270  -0.119435  -0.009595  -5.136000  -0.239624  11.559600  -8.560070  -2.339400   9.255780 -74.857200   9.169760   0.319151  -0.191938   6.179070 -19.331600   5.629520 -11.645400  -1.434370  47.088900  44.346200 -73.276700 -33.478400   0.006482   0.005437 -11.726300   0.006485   0.002693 -33.189800  -1.057000   1.615350 -27.167500   0.002092  -0.004009 -19.017200   0.002960  -0.000426 -31.087900  -3.718070   6.142800 -46.931000   0.000294  -0.001558 -31.256000   0.006523  -0.001192 -27.997200  -4.846910   9.030370 -34.926000  -0.006161   0.001192 -23.260700  -0.000421  -0.005625 -29.754400  -5.836230  10.086200 -45.404700  -0.000461  -0.006682 -30.239500  -0.001476  -0.005082   8.161490   1.896510  10.200100  70.697100   5.968900   2.219370   2.615440  -3.106140  19.883700 -14.969100  -5.596430   1.930040 -42.371800  36.957800  67.886000  30.291200   0.011366  -0.006561  10.145600   0.004337   0.004009  35.766400  -0.161653  -0.224409  29.263700   0.000669  -0.003189  20.484600  -0.000272  -0.002808  29.751700  -2.053220  -3.586640  44.724000   0.000000   0.004249  29.786200   0.001265   0.003084  30.745400  -3.473230  -5.815370  46.382400  -0.001312  -0.002512  30.890600   0.010763   0.004211  40.100000  -4.372960  -5.173830  60.446100   0.001668   0.001985  40.257100   0.000781   0.001102   2.351470   5.303630   0.424550  -0.369817   0.153162  10.368200  -3.184580  -3.063290  -0.055499  -0.000000   0.000000   0.000000  -1.873770   6.716660  -5.192190   1.358900   0.358896 -16.101600   1.156000  -2.943640  -1.295580  -0.000000   0.000000   0.000000
  1.556640  89.487700   1.449030  -0.699115  -3.070430  -1.679310   0.644277   4.176560  -1.019190   1.368730   8.340640  -2.093920  -3.138520  -0.096045  -0.009551  -5.156310  -0.192331  11.554000  -8.554140  -2.332450   9.247560 -74.823400   9.185000   0.241099  -0.174472   6.242530 -19.450300   5.638600 -11.676100  -1.462370  47.074400  44.330200 -73.300700 -33.472100   0.006488   0.005446 -11.726300   0.006485   0.002702 -33.190800  -1.052450   1.608420 -27.168200   0.002091  -0.004006 -19.017700   0.002961  -0.000423 -31.149800  -3.718170   6.125700 -47.023000   0.000297  -0.001547 -31.317300   0.006517  -0.001185 -28.001800  -4.841500   9.019230 -34.961000  -0.006153   0.001202 -23.284000  -0.000422  -0.005618 -29.772200  -5.832750  10.079200 -45.430200  -0.000462  -0.006673 -30.256500  -0.001476  -0.005075   8.135860   1.871720  10.200500  70.696300   5.956240   2.191760   2.628190  -3.029290  19.801300 -14.955800  -5.597360   1.964620 -42.250300  36.841400  67.697000  30.319800   0.011368  -0.006566  10.159900   0.004333   0.004011  35.752800  -0.162575  -0.225737  29.252600   0.000671  -0.003186  20.476800  -0.000272  -0.002804  29.740700  -2.070200  -3.617880  44.709000   0.000000   0.004247  29.776200   0.001266   0.003081  30.699600  -3.547220  -5.949160  46.325700  -0.001315  -0.002513  30.852900   0.010765   0.004211  40.075900  -4.470210  -5.291840  60.426200   0.001665   0.001981  40.243900   0.000778   0.001100   2.354670   5.354080   0.416650  -0.374671   0.095100  10.359900  -3.181240  -3.044360  -0.076297   0.000000   0.000000   0.000000  -1.872590   6.735830  -5.204520   1.362430   0.367440 -16.108100   1.156230  -2.968520  -1.316810  -0.000000   0.000000   0.000000
